<?xml version="1.0" encoding="UTF-8"?>
<!-- Generator: visioncortex VTracer 0.6.4 -->
<svg version="1.1" xmlns="http://www.w3.org/2000/svg" width="1184" height="320">
<path d="M0 0 C390.72 0 781.44 0 1184 0 C1184 105.6 1184 211.2 1184 320 C793.28 320 402.56 320 0 320 C0 214.4 0 108.8 0 0 Z M72 80 C69.36778927 82.63221073 69.71092494 83.92193619 69.62109375 87.59375 C69.58693359 88.70621094 69.55277344 89.81867188 69.51757812 90.96484375 C69.49115234 92.13144531 69.46472656 93.29804687 69.4375 94.5 C69.37771934 96.80219127 69.31411234 99.10428739 69.24609375 101.40625 C69.22216553 102.43041016 69.1982373 103.45457031 69.17358398 104.50976562 C69 107 69 107 68 109 C65.9375 109.625 65.9375 109.625 64 110 C64.33 109.01 64.66 108.02 65 107 C61.5980513 104.90649311 58.94727588 104.82057837 55 105 C54.71472592 108.37891294 54.58128755 111.62854907 55 115 C57.98756261 118.08092394 61.83125337 118.68027154 66.0078125 119.06640625 C69.25666202 118.95811127 71.34340669 117.79165595 74 116 C79.73453146 109.3097133 79.20901577 100.45578221 79.3125 92.0625 C79.33014404 91.22130615 79.34778809 90.3801123 79.3659668 89.51342773 C79.36508057 88.71622314 79.36419434 87.91901855 79.36328125 87.09765625 C79.36626221 86.38101807 79.36924316 85.66437988 79.37231445 84.92602539 C78.88174643 82.38826073 78.08505149 81.50153178 76 80 C74.68 80 73.36 80 72 80 Z M87 85 C82.93430909 91.74508606 82.05012046 98.4927197 83.3671875 106.12890625 C84.85884858 111.51318973 87.87296062 114.06896783 92.60546875 116.8671875 C97.96379596 119.40212207 102.08796719 119.47780377 107.75 117.8125 C112.9678404 115.81322438 115.20477877 113.6198951 117.6875 108.5625 C118.77816526 105.60212287 119.61118961 103.11048316 120 100 C120.144375 98.9275 120.28875 97.855 120.4375 96.75 C119.74056017 90.77623 116.4238563 86.56203338 112.35546875 82.26171875 C108.69104834 80.29885342 105.15413836 80.52634898 101.0625 80.5625 C100.26392578 80.54251953 99.46535156 80.52253906 98.64257812 80.50195312 C93.51508392 80.50620126 90.62761834 81.04507775 87 85 Z M122 81 C121.08057785 83.14782757 121.08057785 83.14782757 121 86 C122.36462873 88.58698765 123.70902672 90.81497556 125.375 93.1875 C126.216558 94.43071068 127.05772176 95.67418834 127.8984375 96.91796875 C128.59195313 97.93503906 129.28546875 98.95210937 130 100 C131.90347396 103.80694793 131.35842571 108.51572791 131.5234375 112.71484375 C131.73811616 115.94237616 131.73811616 115.94237616 133.37890625 117.953125 C135.03896856 119.25578092 135.03896856 119.25578092 137.5625 118.8125 C140.14441272 118.15372967 140.14441272 118.15372967 142 116 C142.10817459 114.18183471 142.20561309 112.36179559 142.22583008 110.54052734 C142.31510472 102.54187986 143.23737482 97.8629694 149 92 C152.23593968 88.06412746 152.23593968 88.06412746 152.75 83.125 C152.5025 82.42375 152.255 81.7225 152 81 C148.75511206 80.32961907 148.75511206 80.32961907 145 81 C141.68056833 84.15052254 139.44238959 87.67283123 138 92 C137.01 92.495 137.01 92.495 136 93 C135.731875 92.113125 135.46375 91.22625 135.1875 90.3125 C133.27175632 84.70923408 133.27175632 84.70923408 129 81 C126.6670134 80.95977609 124.33293334 80.95679753 122 81 Z M156 82 C155.64273491 86.34016376 155.53011416 90.6934586 155.38745117 95.04541016 C155.31326565 97.22747947 155.22247117 99.40844593 155.13085938 101.58984375 C155.08230572 102.98173537 155.03474818 104.37366216 154.98828125 105.765625 C154.94227783 107.03180664 154.89627441 108.29798828 154.84887695 109.60253906 C154.99771007 112.94851907 155.36352631 115.08996532 157 118 C161.42230595 119.47410198 165.74228417 119.22495829 170.375 119.25 C171.32117188 119.270625 172.26734375 119.29125 173.2421875 119.3125 C178.31506147 119.34099929 181.87647997 119.33390981 186 116 C185.67 114.02 185.34 112.04 185 110 C178.4 110 171.8 110 165 110 C165 107.36 165 104.72 165 102 C166.21558594 102.08378906 167.43117187 102.16757813 168.68359375 102.25390625 C170.26821121 102.35704703 171.85284765 102.45989661 173.4375 102.5625 C174.23994141 102.61857422 175.04238281 102.67464844 175.86914062 102.73242188 C177.91062111 102.8616295 179.95546369 102.9351273 182 103 C183.41577477 101.81575674 183.41577477 101.81575674 183.0625 98.4375 C183.0315625 96.7359375 183.0315625 96.7359375 183 95 C179.38132441 93.7937748 176.07493749 93.89183082 172.3125 93.9375 C171.61060547 93.94201172 170.90871094 93.94652344 170.18554688 93.95117188 C168.45699462 93.96293073 166.72848635 93.98086546 165 94 C165 92.02 165 90.04 165 88 C166.91425781 88.16048828 166.91425781 88.16048828 168.8671875 88.32421875 C170.53639901 88.44612746 172.20567345 88.56717677 173.875 88.6875 C174.71675781 88.76033203 175.55851562 88.83316406 176.42578125 88.90820312 C177.63427734 88.99038086 177.63427734 88.99038086 178.8671875 89.07421875 C179.61081543 89.13182373 180.35444336 89.18942871 181.12060547 89.2487793 C181.74080566 89.16668213 182.36100586 89.08458496 183 89 C185.28600028 86.29667695 185.28600028 86.29667695 184.6875 83.875 C184.15421514 82.01406147 184.15421514 82.01406147 183 81 C181.08541718 80.90028214 179.16717683 80.86919411 177.25 80.8671875 C175.50203125 80.86525391 175.50203125 80.86525391 173.71875 80.86328125 C171.87796875 80.86908203 171.87796875 80.86908203 170 80.875 C168.7728125 80.87113281 167.545625 80.86726563 166.28125 80.86328125 C165.1159375 80.86457031 163.950625 80.86585937 162.75 80.8671875 C161.67234375 80.86831543 160.5946875 80.86944336 159.484375 80.87060547 C157.05780003 80.71907629 157.05780003 80.71907629 156 82 Z M190 81 C188.87457742 88.11564775 188.77934755 95.059851 188.75 102.25 C188.729375 103.52875 188.70875 104.8075 188.6875 106.125 C188.68234375 107.34703125 188.6771875 108.5690625 188.671875 109.828125 C188.6625293 110.9409082 188.65318359 112.05369141 188.64355469 113.20019531 C188.75572239 116.03430905 188.75572239 116.03430905 190.52050781 117.88574219 C191.00874023 118.25344727 191.49697266 118.62115234 192 119 C195.72614153 117.88145414 195.72614153 117.88145414 198 115 C198.07065617 112.95944995 198.08421976 110.91665743 198.0625 108.875 C198.05347656 107.77929688 198.04445312 106.68359375 198.03515625 105.5546875 C198.01775391 104.29011719 198.01775391 104.29011719 198 103 C203.12298927 104.35101841 204.94198471 107.4808785 207.6875 111.6875 C210.86239863 116.36865522 210.86239863 116.36865522 215.87109375 118.6328125 C218.40708669 118.33784595 220.60740046 117.88068026 223 117 C221.62018779 112.58460093 219.17889697 109.43509301 216.33984375 105.8671875 C215 104 215 104 214 101 C214.99 100.67 215.98 100.34 217 100 C219.95058862 96.93592721 220.83079074 94.2302314 221 90 C219.43250348 85.79250935 217.84609688 83.30589694 214 81 C211.29594915 80.58907863 211.29594915 80.58907863 208.359375 80.70703125 C207.28945312 80.71669922 206.21953125 80.72636719 205.1171875 80.73632812 C204.00601563 80.76146484 202.89484375 80.78660156 201.75 80.8125 C200.62335938 80.82603516 199.49671875 80.83957031 198.3359375 80.85351562 C195.55680736 80.88884355 192.77864637 80.9381748 190 81 Z M226 81 C224.99986826 85.14241416 224.88483458 89.01480304 224.90234375 93.26953125 C224.9037587 93.95053391 224.90517365 94.63153656 224.90663147 95.33317566 C224.91219702 97.49299647 224.92474297 99.65271089 224.9375 101.8125 C224.94251946 103.28320162 224.94708159 104.75390488 224.95117188 106.22460938 C224.96215512 109.8164404 224.97939578 113.4082098 225 117 C228.51640764 118.69028247 228.51640764 118.69028247 232.265625 118.46484375 C234.21753941 117.10318159 234.21753941 117.10318159 234.609375 114.62890625 C234.77188 111.08539446 234.92181003 107.54624072 235 104 C235.02578125 103.20561523 235.0515625 102.41123047 235.078125 101.59277344 C235.15667114 99.04100567 235.20800576 96.49011511 235.25 93.9375 C235.2715918 93.11644775 235.29318359 92.29539551 235.31542969 91.44946289 C235.33432303 87.93784372 235.31750506 85.61334063 233.68359375 82.45703125 C231.96701252 80.68030031 231.96701252 80.68030031 228.8125 80.75 C227.884375 80.8325 226.95625 80.915 226 81 Z M249.0234375 83.0234375 C246.620303 86.55855041 245.06173478 90.09996864 243.5 94.0625 C243.19956787 94.80967285 242.89913574 95.5568457 242.58959961 96.32666016 C237.94141309 106.86965304 237.94141309 106.86965304 236 118 C238.94961915 119.24791579 240.03945364 118.98579669 243.125 117.875 C246.53931937 116.04085753 246.53931937 116.04085753 248 111 C251.96 111 255.92 111 260 111 C260.66 112.98 261.32 114.96 262 117 C265.35458155 117.76522801 265.35458155 117.76522801 269 118 C270.73787713 116.59627278 270.73787713 116.59627278 272 115 C266.98233743 96.68930592 266.98233743 96.68930592 257 81 C253.29148019 80.43566003 251.70622532 80.27702626 249.0234375 83.0234375 Z M140 136 C138.07932664 136.0571755 136.15838839 136.10973836 134.23706055 136.13720703 C109.89901003 136.64205432 89.01200585 145.15899543 70 160 C68.9171875 160.84304687 68.9171875 160.84304687 67.8125 161.703125 C61.24710125 167.50646854 55.49212794 178.34508814 54.83886719 187.17895508 C54.79321374 189.72360414 54.76476446 192.26747642 54.75 194.8125 C54.729375 195.68970703 54.70875 196.56691406 54.6875 197.47070312 C54.64047432 205.3298691 56.68424821 211.97736632 62 218 C78.82734032 233.96292215 103.82005701 241.28133424 126.7734375 241.3359375 C127.77726471 241.3425943 128.78109192 241.3492511 129.81533813 241.35610962 C131.9313984 241.36617702 134.04749003 241.37092849 136.16357422 241.37060547 C139.33226811 241.37494153 142.49952381 241.41122307 145.66796875 241.44921875 C159.23588722 241.52476543 173.16306536 240.98970482 186.0507611 236.24499577 C194.02233428 233.38436516 202.00038062 233.57330083 210.35012817 233.60127258 C212.00455874 233.59582736 213.65898541 233.5890734 215.31340587 233.58113068 C219.84008604 233.56315737 224.36660171 233.56365605 228.89330912 233.56726015 C233.78209472 233.56788521 238.67082571 233.55125258 243.55958557 233.53674316 C252.02321912 233.51397307 260.48681155 233.50207479 268.95047379 233.49761391 C281.18741541 233.49114847 293.42428276 233.46820412 305.66119443 233.44127061 C325.51598114 233.39801615 345.37076473 233.36804173 365.22558594 233.34643555 C384.50978127 233.32542185 403.793951 233.29814332 423.078125 233.26245117 C424.267309 233.26025235 425.456493 233.25805352 426.68171288 233.25578807 C432.64765116 233.24471832 438.6135892 233.23352552 444.57952714 233.22227156 C494.05299545 233.12910544 543.52647827 233.05749866 593 233 C592.96519531 234.69769531 592.96519531 234.69769531 592.9296875 236.4296875 C592.91093099 237.91145175 592.89273066 239.39322312 592.875 240.875 C592.85824219 241.62136719 592.84148438 242.36773437 592.82421875 243.13671875 C592.8066041 245.09194461 592.89679811 247.04742021 593 249 C593.66 249.66 594.32 250.32 595 251 C599.57655061 250.73079114 605.69715701 248.30284299 609 245 C609.33 241.04 609.66 237.08 610 233 C643.33 233 676.66 233 711 233 C710.60731521 228.00958358 710.60731521 228.00958358 707.625 226.375 C706.75875 225.92125 705.8925 225.4675 705 225 C704.319375 224.2575 704.319375 224.2575 703.625 223.5 C701.1018275 221.17091769 698.17635303 220.23823932 695 219 C694.0956723 218.64503448 693.1913446 218.29006897 692.25961304 217.92434692 C688.49932076 216.85801955 685.02951396 216.73362469 681.15869141 216.77294922 C680.01620941 216.77251114 680.01620941 216.77251114 678.85064697 216.77206421 C676.3508334 216.77344969 673.85132356 216.78897372 671.3515625 216.8046875 C669.6113603 216.80842042 667.87115599 216.81126607 666.13095093 216.81326294 C661.56396624 216.82087746 656.99710995 216.84050713 652.43017578 216.8626709 C647.7646661 216.8831764 643.09913556 216.8922747 638.43359375 216.90234375 C629.28900627 216.92375516 620.14451384 216.95786467 611 217 C611.00444122 216.16950134 611.00888245 215.33900269 611.01345825 214.4833374 C611.05353698 206.65560745 611.08398544 198.82791198 611.10362434 191.000103 C611.11406032 186.97577282 611.1282161 182.95152746 611.15087891 178.92724609 C611.17261396 175.04339006 611.18457003 171.15961559 611.18975449 167.27570343 C611.19344905 165.79413825 611.20066362 164.31257751 611.21146011 162.83104706 C611.225984 160.75543073 611.22797759 158.68015118 611.22705078 156.60449219 C611.231492 155.42312683 611.23593323 154.24176147 611.24050903 153.02459717 C611.00588299 150.07398336 610.70634977 148.39919515 609 146 C605.29455389 144.7648513 601.85094809 144.423107 598 145 C595.03268602 146.83656989 595.03268602 146.83656989 593 149 C593.33 150.98 593.66 152.96 594 155 C593.3915625 154.67386719 592.783125 154.34773438 592.15625 154.01171875 C573.44926226 144.68573516 551.352551 144.69174028 531.71484375 151.06640625 C521.95882384 154.80354156 512.34672812 160.85746203 507.77734375 170.609375 C505.22533279 177.01102961 504.36734342 180.8276554 506.9140625 187.3359375 C512.32104146 199.58440004 523.05468028 205.1523882 535 210 C542.52417796 212.5410601 550.11746511 212.43586396 558 212.4375 C559.03430649 212.44109528 559.03430649 212.44109528 560.08950806 212.44476318 C572.62185432 212.4451279 582.68851925 210.65574038 594 205 C593.67 208.63 593.34 212.26 593 216 C579.33710146 216.75190324 565.7290642 217.14630902 552.04663086 217.12939453 C550.15435757 217.130755 548.26208455 217.13253852 546.36981201 217.13470459 C541.29181017 217.1392094 536.21382897 217.13751645 531.13582683 217.1343255 C525.75262451 217.13175696 520.36942372 217.13415254 514.98622131 217.13571167 C505.9277414 217.13752403 496.86926968 217.13515543 487.81079102 217.13037109 C477.46442337 217.12496824 467.11807557 217.12666575 456.77170843 217.1321975 C447.78892888 217.1368013 438.80615516 217.13734329 429.82337481 217.13475883 C424.50366015 217.13323036 419.18395465 217.13290347 413.86424065 217.13629532 C390.69144782 217.14909022 367.54333973 216.94349404 344.37756634 216.36052322 C329.27579383 215.98291096 314.1850489 215.85255041 299.078125 215.8671875 C296.48565665 215.8665088 293.89318836 215.86553417 291.30072021 215.86428833 C285.29943042 215.86266194 279.29816107 215.86602191 273.29687285 215.8714391 C267.88233912 215.87576971 262.46782861 215.87265717 257.05329633 215.8678025 C251.0614536 215.86265523 245.06962665 215.86327684 239.07778168 215.86618423 C236.5856399 215.8668401 234.09349724 215.86607341 231.60135651 215.86370468 C219.39586153 215.85462129 207.19499668 215.92935472 194.99511719 216.32470703 C194.04896671 216.3471945 193.10281624 216.36968197 192.12799454 216.39285088 C183.6716487 216.72014047 176.00484175 218.84216203 168.01953125 221.52734375 C148.17862511 227.79014973 124.78120986 227.03975465 105 221 C103.83404297 220.65461182 103.83404297 220.65461182 102.64453125 220.30224609 C78.96246697 213.19476666 78.96246697 213.19476666 73.9296875 203.91015625 C73.62289062 203.27980469 73.31609375 202.64945312 73 202 C72.566875 201.154375 72.13375 200.30875 71.6875 199.4375 C69.61897105 192.10362462 71.69838928 185.61209674 75 179 C83.89963573 165.5971486 95.0801082 160.3970462 110 156 C110.66112793 155.80422363 111.32225586 155.60844727 112.00341797 155.40673828 C119.26573713 153.52517611 126.66536998 153.54764332 134.125 153.375 C135.43726563 153.33632812 136.74953125 153.29765625 138.1015625 153.2578125 C142.06762056 153.14851169 146.03301561 153.06723288 150 153 C151.31887207 152.97591064 152.63774414 152.95182129 153.99658203 152.92700195 C161.02546931 152.85428933 167.73514395 152.99612931 174.625 154.4375 C175.44766357 154.60580322 176.27032715 154.77410645 177.11791992 154.94750977 C189.88066572 157.82499446 202.58717507 163.03229185 213 171 C219.53237206 168.58060294 222.85406719 161.87819331 225.8125 156 C226.12380859 155.40960938 226.43511719 154.81921875 226.75585938 154.2109375 C228.70851346 150.31421243 229.33726523 147.33815671 229 143 C223.71986447 139.69590639 223.71986447 139.69590639 217.6875 139.5 C214.91404543 140.78351609 214.91404543 140.78351609 213.5625 143.125 C213.046875 143.74375 212.53125 144.3625 212 145 C206.92967723 145.36486194 202.68850051 144.58589055 197.8125 143.25 C183.88669868 139.60249162 170.15466193 136.67888224 155.73828125 136.15234375 C151.71963925 135.98857464 147.77284557 135.59209361 143.78515625 135.0859375 C141.89417665 134.84886824 141.89417665 134.84886824 140 136 Z M907 149 C904.99969559 152.11080114 904.74752691 154.60170952 904.74121094 158.25585938 C904.73490662 159.30374634 904.72860229 160.3516333 904.72210693 161.43127441 C904.7261554 162.55739136 904.73020386 163.6835083 904.734375 164.84375 C904.73246155 166.0049939 904.7305481 167.16623779 904.72857666 168.3626709 C904.72721604 170.81714088 904.73090386 173.27161808 904.73925781 175.72607422 C904.74995877 179.48551582 904.73935804 183.24447954 904.7265625 187.00390625 C904.72788412 189.38802189 904.73044655 191.77213723 904.734375 194.15625 C904.73032654 195.28236694 904.72627808 196.40848389 904.72210693 197.56872559 C904.72841125 198.61661255 904.73471558 199.66449951 904.74121094 200.74414062 C904.74280212 201.66473267 904.74439331 202.58532471 904.74603271 203.53381348 C905.01688229 206.16393795 905.58086376 207.78071996 907 210 C909.97239791 211.48619895 912.69619578 211.13177009 916 211.125 C917.258125 211.12757813 918.51625 211.13015625 919.8125 211.1328125 C922.89677818 211.22227358 922.89677818 211.22227358 925 210 C924.97905273 208.99622314 924.95810547 207.99244629 924.93652344 206.95825195 C924.86393306 203.22174434 924.81813189 199.48529863 924.78027344 195.74829102 C924.76020108 194.13327542 924.7329367 192.51833211 924.69824219 190.90356445 C924.64952785 188.57745499 924.62698846 186.25230907 924.609375 183.92578125 C924.58872986 183.20787918 924.56808472 182.48997711 924.54681396 181.75032043 C924.54519956 178.11496818 924.89757336 176.15829933 926.8918457 173.07617188 C931.68470561 168.35602356 938.5132728 167.80342466 945 167.5 C961.83039946 167.93766996 975.85605573 175.36237798 989.4921875 184.58203125 C992.08886971 186.05024876 994.0285683 186.77336538 997 187 C997.99 186.01 997.99 186.01 999 185 C998.67801034 181.90073181 998.67801034 181.90073181 998 179 C996.68 178.67 995.36 178.34 994 178 C995 176 995 176 998.3125 174.6875 C1001.98108076 173.20349505 1003.8170657 171.35836047 1006 168 C1007.20643566 164.38069302 1007.32268559 161.80768995 1007 158 C1004.72051347 153.69430322 1002.18976444 150.51385866 998 148 C993.11681059 146.55001081 989.24852147 146.53615915 984.625 148.75 C982.02042809 150.18626599 979.94310178 151.73503474 978 154 C978 154.66 978 155.32 978 156 C976.89269531 155.57074219 975.78539062 155.14148438 974.64453125 154.69921875 C953.07229867 146.40839063 953.07229867 146.40839063 930.97265625 149.44140625 C927.8769084 150.31802396 925.80990457 149.44414122 923.0625 147.9375 C918.30050098 145.77295499 911.72626436 147.03149697 907 149 Z M384.3125 147.875 C383.13107422 148.11863281 383.13107422 148.11863281 381.92578125 148.3671875 C380.97251953 148.68042969 380.97251953 148.68042969 380 149 C378.64855346 151.70289308 378.88024835 153.80069806 378.88647461 156.82666016 C378.88655014 158.04777496 378.88662567 159.26888977 378.88670349 160.52700806 C378.89181048 161.86435995 378.89702648 163.20171143 378.90234375 164.5390625 C378.9042086 165.90383859 378.90563219 167.26861534 378.90663147 168.63339233 C378.91045137 172.22715093 378.92027717 175.82086917 378.93133545 179.41461182 C378.94156089 183.08108982 378.94613152 186.74757435 378.95117188 190.4140625 C378.9618999 197.60939553 378.97949244 204.80468697 379 212 C384.94 212 390.88 212 397 212 C397.98158793 208.07364829 398.2025996 204.50396767 398.28125 200.49609375 C398.29965942 199.77639908 398.31806885 199.05670441 398.33703613 198.31520081 C398.41545088 195.24551742 398.48346155 192.1756248 398.55224609 189.10571289 C398.60404055 186.86073224 398.66125168 184.61593438 398.71875 182.37109375 C398.73232544 181.67729111 398.74590088 180.98348846 398.7598877 180.2686615 C398.83764481 177.25676774 399.03991496 174.88025511 400 172 C410.80602931 166.24006638 422.61188956 167.83877369 433.83056641 171.24316406 C443.13329192 174.48854434 451.60690995 180.14937018 459.6328125 185.75 C462.31480072 187.1662314 464.01070004 187.25531388 467 187 C467.2954439 181.97745369 466.98514628 179.10457614 464 175 C465.98 175 467.96 175 470 175 C474.73413718 167.52923803 474.73413718 167.52923803 476 159 C472.34995398 151.90206106 472.34995398 151.90206106 466.1875 147.41015625 C460.18552539 146.456271 456.41503574 147.70989542 451.06640625 150.48046875 C448.81183352 152.13836817 448.00997571 153.4226303 447 156 C446.49855469 155.72285156 445.99710937 155.44570312 445.48046875 155.16015625 C437.09458405 151.23793931 427.27818043 148.2806255 418 148 C417.20464844 147.938125 416.40929687 147.87625 415.58984375 147.8125 C408.95476138 147.48433518 403.95653663 149.16113999 398 152 C398 151.01 398 150.02 398 149 C393.15057857 146.84470159 389.45736284 146.76949228 384.3125 147.875 Z M259 161 C258.36835938 161.64195312 257.73671875 162.28390625 257.0859375 162.9453125 C250.8882135 169.65313724 248.16538577 175.5144922 248.11303711 184.81225586 C248.38658928 190.1352522 249.8479133 193.07746048 253.5625 197.0625 C263.12865918 205.29933576 274.44518331 210.13172793 287.0625 210.203125 C287.84963379 210.20882507 288.63676758 210.21452515 289.44775391 210.22039795 C291.11538355 210.22983379 292.78303172 210.2363763 294.45068359 210.24023438 C296.96356324 210.24986042 299.47559616 210.28086281 301.98828125 210.3125 C314.73279363 210.39777297 326.13345408 209.95718685 336 201 C337.010625 200.175 338.02125 199.35 339.0625 198.5 C341.31515698 196.10705919 341.31515698 196.10705919 341.0625 192.8125 C340.26024643 189.97713821 340.26024643 189.97713821 338.3125 188.625 C332.61685059 187.08563529 329.48212227 188.22227907 324.3359375 190.91015625 C312.18937803 196.57719654 292.55091141 198.26370267 279.859375 193.79296875 C275.07519918 191.4656911 271.71418245 188.76810975 268 185 C277.02323797 184.97679928 286.04646562 184.95904553 295.06972694 184.94818783 C299.25987428 184.9429759 303.45000116 184.935909 307.64013672 184.92456055 C311.68609187 184.91367153 315.73202738 184.90771043 319.77799606 184.90512276 C321.31930221 184.90327934 322.86060731 184.89967963 324.40190506 184.89426994 C326.56564889 184.88697965 328.72931222 184.88601242 330.89306641 184.88647461 C332.12328522 184.884254 333.35350403 184.88203339 334.6210022 184.87974548 C338 185 338 185 341.26644897 185.57423401 C344.0692739 186.24090908 344.0692739 186.24090908 346.84375 184.92578125 C349.24127146 183.16296974 349.24127146 183.16296974 349.59375 180.29296875 C349.35017675 172.22460482 348.55353835 167.26594131 342.625 161.5 C327.49715898 149.09022842 306.61931417 147.5574782 287.80078125 148.69384766 C277.57528054 149.81159329 266.3257285 153.53133046 259 161 Z M664.3125 150.375 C663.50425781 151.00148437 662.69601562 151.62796875 661.86328125 152.2734375 C661.24839844 152.84320313 660.63351562 153.41296875 660 154 C660 154.66 660 155.32 660 156 C659.34 156 658.68 156 658 156 C658 156.66 658 157.32 658 158 C657.34 158 656.68 158 656 158 C656 158.66 656 159.32 656 160 C655.34 160 654.68 160 654 160 C654 160.66 654 161.32 654 162 C653.34 162 652.68 162 652 162 C646.68460195 169.24827006 646.28724879 175.19542619 647 184 C649.40216051 193.47879553 658.14179109 201.19256399 666.1875 206 C681.56480583 214.5635331 699.46566578 213.24438064 716 209 C728.18693125 205.04865531 740.88678978 198.50334021 747.16015625 186.84375 C749.55562565 180.95359148 749.07854819 175.94160605 747 170 C745.2371888 166.68819268 745.2371888 166.68819268 743 164 C742.13375 162.82630859 742.13375 162.82630859 741.25 161.62890625 C738.71388555 158.66570308 736.01927943 156.55219968 732.875 154.25 C731.82054687 153.47140625 730.76609375 152.6928125 729.6796875 151.890625 C725.54640729 148.97443313 723.12451387 148.21829449 718 149 C714.7989031 152.20905983 713.19825746 155.51306905 712.6015625 159.98828125 C713.1168756 163.883442 714.41309786 164.97754658 717.3125 167.5625 C721.64493461 171.4763419 724.69396264 174.55170115 725.4375 180.5 C724.91579685 184.67362523 724.03325858 186.12638661 721 189 C710.11162175 195.48669342 694.74464985 194.26509861 682.8125 191.375 C677.03688012 189.62670425 672.22880793 187.37894312 668 183 C666.38619805 179.77239609 666.60064352 177.59420831 667 174 C669.37839933 169.25966085 672.49708365 165.34168919 676.375 161.75 C679.09531046 159.29134675 679.09531046 159.29134675 679.8125 156.5625 C678.50010479 152.42340743 675.44998095 149.56347621 672 147 C668.23396179 147 667.22857351 148.07407243 664.3125 150.375 Z M783 164 C777.75215747 170.76388593 774.95504071 178.34176586 776 187 C779.53039249 196.40951717 784.78027743 200.66335207 793.5 205.125 C794.44746094 205.64513672 794.44746094 205.64513672 795.4140625 206.17578125 C805.9674785 211.57664709 818.09756994 211.34288786 829.6875 211.3125 C831.54858398 211.33666992 831.54858398 211.33666992 833.44726562 211.36132812 C843.63258837 211.36672004 851.6605096 209.81514957 860.4375 204.5 C861.92056641 203.61828125 861.92056641 203.61828125 863.43359375 202.71875 C866.50764621 200.66462369 866.50764621 200.66462369 869 198 C869.32548832 194.44336774 869.32548832 194.44336774 868 191 C863.81248397 188.44359779 863.81248397 188.44359779 859.0390625 188.31640625 C856.08416038 189.30703435 853.32673055 190.63567301 850.51171875 191.96484375 C843.85927485 194.7065197 837.66708317 195.40977998 830.5625 195.6875 C829.20801758 195.75807617 829.20801758 195.75807617 827.82617188 195.83007812 C820.97199748 196.13283311 814.18887579 196.20540999 807.75 193.5 C805.18526004 192.4401901 802.7070982 191.62287215 800 191 C800 190.34 800 189.68 800 189 C798.70766393 187.62689293 797.37562854 186.28965176 796 185 C803.4700844 184.89379027 810.89525247 184.96457179 818.35571289 185.35864258 C829.41161731 185.93601866 840.46418905 186.16675087 851.53366089 186.23217773 C853.2541844 186.24401085 854.97468035 186.26105774 856.69509888 186.28344727 C859.13284616 186.31344123 861.56990117 186.32337017 864.0078125 186.328125 C864.74024673 186.34043152 865.47268097 186.35273804 866.22731018 186.36541748 C870.64817525 186.34636412 873.5065072 185.76928819 877 183 C878.33844632 178.31959454 877.42084537 173.22269207 875.5 168.8125 C869.98676644 159.28440298 860.3077147 154.96469802 850.1875 151.8125 C848.79658268 151.51745693 847.39973856 151.24986668 846 151 C845.01902344 150.81566406 844.03804687 150.63132813 843.02734375 150.44140625 C821.79156717 146.90617364 799.30824437 148.06239755 783 164 Z M1053 155 C1051.98164062 155.40605469 1050.96328125 155.81210938 1049.9140625 156.23046875 C1041.72376524 159.92240275 1034.41075896 165.51975433 1031 174 C1029.83988192 181.49032758 1029.9831683 188.36369264 1033.875 195 C1041.19346414 204.82100058 1052.29562241 210.11028578 1064 213 C1069.46800838 213.79725269 1074.95292348 213.74721957 1080.46582031 213.61743164 C1082.89483018 213.56204785 1085.32041839 213.55590941 1087.75 213.55664062 C1095.981811 213.50005866 1103.23593048 212.99110778 1111 210 C1112.37103065 209.59062976 1113.74584393 209.19360046 1115.125 208.8125 C1116.07375 208.544375 1117.0225 208.27625 1118 208 C1118.28875 208.639375 1118.5775 209.27875 1118.875 209.9375 C1119.82823451 212.15206079 1119.82823451 212.15206079 1122 213 C1123.82934565 213.14679934 1125.66500243 213.22102635 1127.5 213.25 C1128.4796875 213.27578125 1129.459375 213.3015625 1130.46875 213.328125 C1131.3040625 213.21984375 1132.139375 213.1115625 1133 213 C1135.28165474 209.57751788 1135.26729869 208.27281938 1135.31884766 204.2434082 C1135.33871735 203.06241043 1135.35858704 201.88141266 1135.37905884 200.66462708 C1135.39061005 199.38955795 1135.40216125 198.11448883 1135.4140625 196.80078125 C1135.43342865 195.49545944 1135.4527948 194.19013763 1135.4727478 192.84526062 C1135.52407634 189.37819478 1135.56369793 185.91109011 1135.60089111 182.44384766 C1135.64092641 178.90452464 1135.69202087 175.36536323 1135.7421875 171.82617188 C1135.83895513 164.88423267 1135.92335716 157.94218975 1136 151 C1132.9020403 149.45102015 1129.73783448 150.16760461 1126.375 150.4375 C1125.66859375 150.48970703 1124.9621875 150.54191406 1124.234375 150.59570312 C1122.48920013 150.72541207 1120.74454275 150.86204954 1119 151 C1118.4465236 153.07553648 1118 154.84365964 1118 157 C1117.10539062 156.67386719 1116.21078125 156.34773437 1115.2890625 156.01171875 C1114.07992188 155.57472656 1112.87078125 155.13773438 1111.625 154.6875 C1110.44164062 154.25824219 1109.25828125 153.82898438 1108.0390625 153.38671875 C1106.69395094 152.92087559 1105.34749845 152.45889312 1104 152 C1102.8411731 151.59527466 1102.8411731 151.59527466 1101.65893555 151.18237305 C1095.55995463 149.18016114 1089.97209023 148.42069366 1083.5625 148.4375 C1082.14275879 148.44003784 1082.14275879 148.44003784 1080.69433594 148.44262695 C1070.80557804 148.68943318 1062.10438702 151.29834189 1053 155 Z M145.5625 177.0625 C142.41730613 179.44057341 140.35698405 181.83490713 138 185 C138 185.66 138 186.32 138 187 C139.32 187.33 140.64 187.66 142 188 C142 188.99 142 189.98 142 191 C140.741875 190.835 139.48375 190.67 138.1875 190.5 C132.7855491 189.88926988 127.42939662 189.90866436 122 190 C121.67 189.01 121.34 188.02 121 187 C115.07861306 187.51490321 109.09699806 188.83184764 104 192 C102.66717451 194.53990038 102.66717451 194.53990038 102 197 C106.64630501 200.94231941 111.18950493 204.79560036 117.4375 205.25 C118.283125 205.1675 119.12875 205.085 120 205 C120.66 203.68 121.32 202.36 122 201 C125.0429859 201.08737286 128.08318366 201.19430626 131.125 201.3125 C132.40890625 201.34633789 132.40890625 201.34633789 133.71875 201.38085938 C138.91586814 201.60073745 142.39895507 202.36678659 147 205 C151.48194028 204.88795149 154.65192364 202.8915205 158 200 C159.03178839 196.79334585 159.03178839 196.79334585 159 193 C159.09539062 192.18660156 159.19078125 191.37320313 159.2890625 190.53515625 C159.71349975 185.48726663 159.71349975 185.48726663 157.578125 181.0625 C153.9545619 177.84155503 150.4002692 174.95372881 145.5625 177.0625 Z M301 193 C301 193.33 301 193.66 301 194 C302.65 194 304.3 194 306 194 C306 193.67 306 193.34 306 193 C304.35 193 302.7 193 301 193 Z M213 215 C213 215.33 213 215.66 213 216 C215.97 216 218.94 216 222 216 C222 215.67 222 215.34 222 215 C219.03 215 216.06 215 213 215 Z " fill="#000000" transform="translate(0,0)"/>
<path d="M0 0 C2.87224027 3.09318183 3.86986437 5.21918624 4.5625 9.375 C3.83510901 14.06263085 2.3171694 17.56125895 -1 21 C-4.67020823 21.84108939 -6.35512926 21.29312307 -9.75 19.75 C-12.16487385 17.87176479 -12.89799491 16.80556343 -14 14 C-14.24590892 9.41789703 -13.55448599 5.85855895 -11.0625 2 C-7.32927996 -1.62009216 -4.98504515 -1.28923582 0 0 Z " fill="#000000" transform="translate(106,89)"/>
<path d="M0 0 C2.4375 1 2.4375 1 4 2 C3.125 6.875 3.125 6.875 2 8 C0.14712498 8.07226502 -1.70833878 8.0838122 -3.5625 8.0625 C-4.57441406 8.05347656 -5.58632812 8.04445313 -6.62890625 8.03515625 C-7.41136719 8.02355469 -8.19382813 8.01195313 -9 8 C-9 5.69 -9 3.38 -9 1 C-5.97562661 -0.5121867 -3.33758466 -0.17263369 0 0 Z " fill="#000000" transform="translate(207,88)"/>
<path d="M0 0 C0.66 0 1.32 0 2 0 C2.99 3.3 3.98 6.6 5 10 C2.69 10 0.38 10 -2 10 C-1.125 2.25 -1.125 2.25 0 0 Z " fill="#000000" transform="translate(253,93)"/>
<path d="M0 0 C0 0.66 0 1.32 0 2 C-14.52 2 -29.04 2 -44 2 C-34.72910604 -7.27089396 -11.24668788 -6.32792368 0 0 Z " fill="#000000" transform="translate(323,167)"/>
<path d="M0 0 C1.56899048 0.00640503 1.56899048 0.00640503 3.16967773 0.01293945 C14.46027651 0.25840611 26.96581598 2.29591803 35.375 10.5 C36.375 12.875 36.375 12.875 36.375 15.5 C36.395625 16.634375 36.41625 17.76875 36.4375 18.9375 C35.12483988 23.33877217 33.54347145 24.72738199 29.7890625 27.21484375 C16.63520641 34.21746293 -5.0177025 34.62129008 -19.4140625 30.75 C-24.71994378 28.56200772 -31.98957875 24.7708425 -34.625 19.5 C-35.10089692 15.2962439 -35.19022288 13.25951825 -32.625 9.8125 C-22.99120455 2.38644934 -11.99440493 -0.07458364 0 0 Z " fill="#000000" transform="translate(557.625,163.5)"/>
<path d="M0 0 C1.25586914 0.0012085 1.25586914 0.0012085 2.53710938 0.00244141 C16.61917355 0.14194904 16.61917355 0.14194904 22.6875 4.1875 C22.6875 4.8475 22.6875 5.5075 22.6875 6.1875 C16.74268819 6.23684399 10.79799491 6.27319282 4.85302734 6.29736328 C2.82956873 6.30743671 0.80612472 6.32109595 -1.21728516 6.33837891 C-4.12145589 6.36256847 -7.02543461 6.37396949 -9.9296875 6.3828125 C-11.29225174 6.39829636 -11.29225174 6.39829636 -12.68234253 6.41409302 C-13.52306305 6.41424408 -14.36378357 6.41439514 -15.22998047 6.41455078 C-16.34250687 6.42121262 -16.34250687 6.42121262 -17.47750854 6.42800903 C-19.3125 6.1875 -19.3125 6.1875 -21.3125 4.1875 C-14.84977699 -0.3168221 -7.59465542 -0.00757647 0 0 Z " fill="#000000" transform="translate(828.3125,163.8125)"/>
<path d="M0 0 C2.97171401 2.56739918 3.88379696 3.38412387 4.625 7.3125 C3.7785378 12.30662697 2.00166591 14.91825728 -2 18 C-5.5692081 19.72565316 -9.19415626 20.91040295 -13 22 C-14.58941406 22.53753906 -14.58941406 22.53753906 -16.2109375 23.0859375 C-20.93952577 24.22664848 -25.34129583 24.34214839 -30.1875 24.3125 C-31.11715576 24.30831055 -32.04681152 24.30412109 -33.00463867 24.29980469 C-45.24963763 24.0990845 -56.73689296 21.4210064 -66 13 C-67.45147903 10.09704195 -67.37239025 8.22738221 -67 5 C-62.76815095 -1.91202011 -56.26325931 -4.75343295 -48.66015625 -6.9765625 C-31.73038411 -10.97984564 -14.94783102 -9.46387444 0 0 Z " fill="#000000" transform="translate(1114,174)"/>
</svg>
